<svg width="27" height="21" viewBox="0 0 27 21" fill="none" xmlns="http://www.w3.org/2000/svg">
<path fill-rule="evenodd" clip-rule="evenodd" d="M0.5 1.16667C0.5 0.522335 1.08203 0 1.8 0H14.8C15.518 0 16.1 0.522335 16.1 1.16667V4.66667C16.1 5.311 15.518 5.83333 14.8 5.83333C14.082 5.83333 13.5 5.311 13.5 4.66667V2.33333H9.6V18.6667H10.9C11.618 18.6667 12.2 19.189 12.2 19.8333C12.2 20.4777 11.618 21 10.9 21H5.7C4.98203 21 4.4 20.4777 4.4 19.8333C4.4 19.189 4.98203 18.6667 5.7 18.6667H7V2.33333H3.1V4.66667C3.1 5.311 2.51797 5.83333 1.8 5.83333C1.08203 5.83333 0.5 5.311 0.5 4.66667V1.16667ZM13.5 10.5C13.5 9.85567 14.082 9.33333 14.8 9.33333H25.2C25.918 9.33333 26.5 9.85567 26.5 10.5V12.8333C26.5 13.4777 25.918 14 25.2 14C24.482 14 23.9 13.4777 23.9 12.8333V11.6667H21.3V18.6667H22.6C23.318 18.6667 23.9 19.189 23.9 19.8333C23.9 20.4777 23.318 21 22.6 21H17.4C16.682 21 16.1 20.4777 16.1 19.8333C16.1 19.189 16.682 18.6667 17.4 18.6667H18.7V11.6667H16.1V12.8333C16.1 13.4777 15.518 14 14.8 14C14.082 14 13.5 13.4777 13.5 12.8333V10.5Z" fill="#185ADC"/>
</svg>
