<svg width="23" height="23" viewBox="0 0 23 23" fill="none" xmlns="http://www.w3.org/2000/svg">
<path d="M19.3659 0H3.63413C1.63019 0 0 1.63019 0 3.63413V19.3659C0 21.3698 1.63019 23 3.63413 23H19.3659C21.3698 23 23 21.3698 23 19.3659V3.63413C23 1.63019 21.3698 0 19.3659 0ZM20.5772 19.3659C20.5772 20.0338 20.0338 20.5772 19.3659 20.5772H3.63413C2.96623 20.5772 2.42286 20.0338 2.42286 19.3659V3.63413C2.42286 2.96623 2.9663 2.42286 3.63413 2.42286H19.3659C20.0338 2.42286 20.5771 2.9663 20.5771 3.63413V19.3659H20.5772Z" fill="#185ADC"/>
<path d="M15.9622 6.80957C15.5715 6.80957 15.2042 6.96182 14.9278 7.23826L9.51524 12.6597L8.07263 11.2172C7.79644 10.9409 7.42921 10.7888 7.03859 10.7888C6.64791 10.7888 6.28067 10.9409 6.00442 11.2171C5.72823 11.4933 5.57617 11.8606 5.57617 12.2512C5.57617 12.6418 5.72823 13.009 6.00442 13.2852L8.48139 15.7621C8.75758 16.0384 9.12482 16.1906 9.5155 16.1906C9.90599 16.1906 10.2733 16.0383 10.5499 15.7619L16.9963 9.30616C17.5664 8.73588 17.5663 7.80809 16.9963 7.23782C16.7201 6.96169 16.3528 6.80957 15.9622 6.80957Z" fill="#185ADC"/>
</svg>
