<svg width="20" height="31" viewBox="0 0 20 31" fill="none" xmlns="http://www.w3.org/2000/svg">
<path opacity="0.2" fill-rule="evenodd" clip-rule="evenodd" d="M0 3.35714C0 1.77919 1.27919 0.5 2.85714 0.5V0.5C4.4351 0.5 5.71429 1.77919 5.71429 3.35714V3.64286C5.71429 5.22081 4.4351 6.5 2.85714 6.5V6.5C1.27919 6.5 0 5.22081 0 3.64286V3.35714ZM14.2857 3.35714C14.2857 1.77919 15.5649 0.5 17.1429 0.5V0.5C18.7208 0.5 20 1.77919 20 3.35714V3.64286C20 5.22081 18.7208 6.5 17.1429 6.5V6.5C15.5649 6.5 14.2857 5.22081 14.2857 3.64286V3.35714ZM0 15.3571C0 13.7792 1.27919 12.5 2.85714 12.5V12.5C4.4351 12.5 5.71429 13.7792 5.71429 15.3571V15.6429C5.71429 17.2208 4.4351 18.5 2.85714 18.5V18.5C1.27919 18.5 0 17.2208 0 15.6429V15.3571ZM14.2857 15.3571C14.2857 13.7792 15.5649 12.5 17.1429 12.5V12.5C18.7208 12.5 20 13.7792 20 15.3571V15.6429C20 17.2208 18.7208 18.5 17.1429 18.5V18.5C15.5649 18.5 14.2857 17.2208 14.2857 15.6429V15.3571ZM0 27.3571C0 25.7792 1.27919 24.5 2.85714 24.5V24.5C4.4351 24.5 5.71429 25.7792 5.71429 27.3571V27.6429C5.71429 29.2208 4.4351 30.5 2.85714 30.5V30.5C1.27919 30.5 0 29.2208 0 27.6429V27.3571ZM14.2857 27.3571C14.2857 25.7792 15.5649 24.5 17.1429 24.5V24.5C18.7208 24.5 20 25.7792 20 27.3571V27.6429C20 29.2208 18.7208 30.5 17.1429 30.5V30.5C15.5649 30.5 14.2857 29.2208 14.2857 27.6429V27.3571Z" fill="#2E3436"/>
</svg>
