<svg width="17" height="25" viewBox="0 0 17 25" fill="none" xmlns="http://www.w3.org/2000/svg">
<path d="M8.87344 7.62413C8.87344 7.32585 8.99018 7.03979 9.19796 6.82888C9.40574 6.61796 9.68756 6.49947 9.98141 6.49947H15.8906C16.1096 6.49967 16.3236 6.56574 16.5056 6.68933C16.6876 6.81292 16.8295 6.9885 16.9133 7.19388C16.997 7.39926 17.019 7.62524 16.9763 7.84327C16.9336 8.0613 16.8283 8.26161 16.6735 8.41889L13.8814 11.256C14.3424 11.37 14.7737 11.5259 15.1623 11.7344C16.2584 12.3207 17 13.3284 17 14.741C17 15.7202 16.6587 16.5524 16.0708 17.1807C15.5006 17.7925 14.7501 18.1599 13.9908 18.3459C12.4987 18.7103 10.7038 18.4403 9.37572 17.5556C9.14862 17.3843 8.99458 17.1314 8.94511 16.8486C8.89564 16.5658 8.95448 16.2745 9.1096 16.0343C9.26471 15.7941 9.50438 15.6232 9.77958 15.5564C10.0548 15.4896 10.3447 15.5321 10.5901 15.6752C11.3789 16.2 12.5401 16.386 13.4722 16.158C13.9243 16.0486 14.2552 15.8566 14.462 15.6347C14.6526 15.4308 14.7841 15.1548 14.7841 14.741C14.7841 14.2791 14.6024 13.9777 14.1282 13.7243C13.5771 13.4289 12.6804 13.2474 11.4602 13.2474C11.2412 13.2472 11.0272 13.1812 10.8451 13.0576C10.6631 12.934 10.5212 12.7584 10.4375 12.553C10.3537 12.3476 10.3317 12.1217 10.3744 11.9036C10.4171 11.6856 10.5225 11.4853 10.6772 11.328L13.2181 8.74879H9.98141C9.68756 8.74879 9.40574 8.6303 9.19796 8.41939C8.99018 8.20847 8.87344 7.92241 8.87344 7.62413ZM3.57442 16.266C3.05737 16.191 2.43691 16.4355 2.12224 17.1237C2.06291 17.2608 1.97723 17.3844 1.87022 17.4873C1.76322 17.5903 1.63705 17.6705 1.4991 17.7234C1.36115 17.7762 1.2142 17.8006 1.06686 17.795C0.919518 17.7895 0.774751 17.7541 0.641041 17.691C0.507331 17.628 0.387368 17.5384 0.288181 17.4277C0.188995 17.317 0.11258 17.1873 0.063414 17.0462C0.0142484 16.9051 -0.00667859 16.7554 0.00185919 16.606C0.010397 16.4566 0.0482277 16.3104 0.113135 16.176C0.863596 14.5355 2.46054 13.8292 3.89203 14.0392C5.36932 14.2566 6.65751 15.4563 6.65751 17.3712C6.65751 19.52 5.05023 20.6582 4.01317 21.3914C3.55817 21.7153 3.16964 21.9868 2.87271 22.2507H5.91887C6.21272 22.2507 6.49454 22.3692 6.70232 22.5801C6.9101 22.791 7.02684 23.0771 7.02684 23.3753C7.02684 23.6736 6.9101 23.9597 6.70232 24.1706C6.49454 24.3815 6.21272 24.5 5.91887 24.5H1.11769C0.823839 24.5 0.542024 24.3815 0.33424 24.1706C0.126456 23.9597 0.0097248 23.6736 0.0097248 23.3753C0.0097248 22.3407 0.452911 21.5594 0.999507 20.9611C1.5136 20.4032 2.18134 19.9474 2.69839 19.5815C3.88022 18.7418 4.44159 18.2259 4.44159 17.3712C4.44159 16.6619 4.04715 16.3365 3.57442 16.266ZM3.85658 0.634757C4.03331 0.730801 4.18105 0.873713 4.28407 1.04827C4.38709 1.22282 4.44153 1.42247 4.44159 1.62596V8.77878H5.49194C5.78579 8.77878 6.0676 8.89727 6.27539 9.10819C6.48317 9.3191 6.5999 9.60516 6.5999 9.90344C6.5999 10.2017 6.48317 10.4878 6.27539 10.6987C6.0676 10.9096 5.78579 11.0281 5.49194 11.0281H1.13099C0.837135 11.0281 0.55532 10.9096 0.347536 10.6987C0.139752 10.4878 0.0230205 10.2017 0.0230205 9.90344C0.0230205 9.60516 0.139752 9.3191 0.347536 9.10819C0.55532 8.89727 0.837135 8.77878 1.13099 8.77878H2.22565V3.72532L1.73224 4.05972C1.48773 4.22126 1.19032 4.2784 0.904567 4.21873C0.61881 4.15906 0.367772 3.98739 0.205943 3.74099C0.0441147 3.49459 -0.0154428 3.19334 0.0401986 2.90264C0.09584 2.61194 0.26219 2.35525 0.503139 2.18828L2.71907 0.688741C2.88597 0.575853 3.07993 0.511068 3.28026 0.501296C3.48059 0.491525 3.67978 0.537134 3.85658 0.633258V0.634757Z" fill="#185ADC"/>
</svg>
