<svg width="23" height="23" viewBox="0 0 23 23" fill="none" xmlns="http://www.w3.org/2000/svg">
<path d="M11.5 0.5C9.32441 0.5 7.19767 1.14514 5.38873 2.35383C3.57979 3.56253 2.16989 5.28049 1.33733 7.29048C0.504766 9.30047 0.286929 11.5122 0.711367 13.646C1.1358 15.7798 2.18345 17.7398 3.72183 19.2782C5.26021 20.8165 7.22022 21.8642 9.35401 22.2886C11.4878 22.7131 13.6995 22.4952 15.7095 21.6627C17.7195 20.8301 19.4375 19.4202 20.6462 17.6113C21.8549 15.8023 22.5 13.6756 22.5 11.5C22.5 8.58262 21.3411 5.78472 19.2782 3.72182C17.2153 1.65892 14.4174 0.5 11.5 0.5ZM11.5 20.9286C9.63521 20.9286 7.81229 20.3756 6.26177 19.3396C4.71125 18.3035 3.50277 16.831 2.78914 15.1082C2.07551 13.3853 1.8888 11.4895 2.2526 9.66058C2.6164 7.83161 3.51439 6.1516 4.833 4.83299C6.15161 3.51438 7.83162 2.6164 9.66058 2.2526C11.4895 1.88879 13.3853 2.07551 15.1082 2.78914C16.831 3.50276 18.3035 4.71125 19.3396 6.26177C20.3756 7.81229 20.9286 9.6352 20.9286 11.5C20.9286 14.0006 19.9352 16.3988 18.167 18.167C16.3988 19.9352 14.0006 20.9286 11.5 20.9286Z" fill="#185ADC"/>
<path d="M11.5 6.5C10.5111 6.5 9.5444 6.79325 8.72215 7.34265C7.8999 7.89206 7.25904 8.67295 6.8806 9.58658C6.50217 10.5002 6.40315 11.5055 6.59608 12.4755C6.789 13.4454 7.26521 14.3363 7.96447 15.0355C8.66373 15.7348 9.55465 16.211 10.5245 16.4039C11.4945 16.5969 12.4998 16.4978 13.4134 16.1194C14.327 15.741 15.1079 15.1001 15.6573 14.2778C16.2068 13.4556 16.5 12.4889 16.5 11.5C16.5 10.1739 15.9732 8.90215 15.0355 7.96447C14.0979 7.02678 12.8261 6.5 11.5 6.5Z" fill="#185ADC"/>
</svg>
