<svg width="22" height="25" viewBox="0 0 22 25" fill="none" xmlns="http://www.w3.org/2000/svg">
<path opacity="0.5" fill-rule="evenodd" clip-rule="evenodd" d="M19.8318 0C19.1473 0 18.5924 0.575977 18.5924 1.28648V4.23515C17.4503 3.17476 16.1032 2.36366 14.6301 1.86245L14.6301 1.86245C12.363 1.09105 9.91767 1.09483 7.65278 1.8723C5.38791 2.64975 3.42238 4.1601 2.04535 6.18237L2.04532 6.18242C0.668547 8.20452 -0.0476131 10.6315 0.00230598 13.1072V13.1073C0.0523663 15.583 0.865993 17.9769 2.32321 19.9373C3.78044 21.8978 5.80429 23.3215 8.09866 23.9999L8.09868 23.9999C10.3931 24.6782 12.8371 24.5753 15.071 23.7061C17.3048 22.8369 19.2113 21.2472 20.5106 19.1705C20.8834 18.5747 20.7203 17.7779 20.1462 17.3909C19.5721 17.004 18.8045 17.1733 18.4316 17.7692C17.4211 19.3845 15.9382 20.6209 14.2008 21.2968L14.2008 21.2969C12.4634 21.9729 10.5624 22.053 8.77775 21.5253C6.99335 20.9978 5.41933 19.8905 4.28587 18.3656C3.1524 16.8407 2.51959 14.9787 2.48066 13.0533C2.44185 11.1278 2.99884 9.24017 4.06972 7.66735C5.1406 6.0947 6.66931 4.9199 8.43113 4.31514L8.04348 3.0985L8.43114 4.31514C10.193 3.71035 12.0949 3.7075 13.8579 4.30739C15.1299 4.74017 16.2811 5.46999 17.2274 6.43241H13.6346C12.9501 6.43241 12.3952 7.00838 12.3952 7.71889C12.3952 8.42939 12.9501 9.00537 13.6346 9.00537H19.8318C20.5164 9.00537 21.0713 8.42939 21.0713 7.71889V1.28648C21.0713 0.575977 20.5164 0 19.8318 0Z" fill="black"/>
</svg>
