<svg width="32" height="24" viewBox="0 0 32 24" fill="none" xmlns="http://www.w3.org/2000/svg">
<path opacity="0.5" fill-rule="evenodd" clip-rule="evenodd" d="M17.1671 1.44966C13.5391 1.44966 10.4078 3.64744 9.08326 6.64344C8.98143 6.87376 8.76209 7.03795 8.50282 7.07792C4.30111 7.72562 1.52381 11.0664 1.52381 14.6566C1.52381 19.0099 5.26948 22.5503 9.90476 22.5503H23.619C27.4057 22.5503 30.4762 19.6279 30.4762 16.0219C30.4762 13.324 28.764 10.8447 26.3614 9.84533C26.0985 9.73597 25.9225 9.49535 25.906 9.22281C25.6444 4.89404 21.837 1.44966 17.1671 1.44966ZM7.8484 5.71823C9.47873 2.41236 13.0284 0 17.1671 0C22.482 0 26.8627 3.81062 27.3908 8.70593C30.1415 10.0438 32 12.9256 32 16.0219C32 20.4276 28.2482 24 23.619 24H9.90476C4.44111 24 0 19.823 0 14.6566C0 10.477 3.13496 6.6297 7.8484 5.71823ZM21.6282 9.88649C21.9201 10.1748 21.911 10.6337 21.6079 10.9114L14.575 17.3543C14.2799 17.6246 13.813 17.6246 13.518 17.3543L10.3921 14.4908C10.089 14.2131 10.0799 13.7542 10.3718 13.4659C10.6637 13.1775 11.146 13.1689 11.4491 13.4465L14.0465 15.826L20.5509 9.86715C20.854 9.58948 21.3363 9.59813 21.6282 9.88649Z" fill="#2E3436"/>
</svg>
