<svg width="23" height="23" viewBox="0 0 23 23" fill="none" xmlns="http://www.w3.org/2000/svg">
<path d="M19.1667 1.72222C19.1667 1.04721 19.7387 0.5 20.4444 0.5H21.7222C22.4279 0.5 23 1.04721 23 1.72222V2.94444C23 3.61946 22.4279 4.16667 21.7222 4.16667V18.8333C22.4279 18.8333 23 19.3805 23 20.0556V21.2778C23 21.9528 22.4279 22.5 21.7222 22.5H20.4444C19.7387 22.5 19.1667 21.9528 19.1667 21.2778H3.83333C3.83333 21.9528 3.26125 22.5 2.55556 22.5H1.27778C0.572081 22.5 0 21.9528 0 21.2778V20.0556C0 19.3805 0.572081 18.8333 1.27778 18.8333V4.16667C0.572081 4.16667 0 3.61946 0 2.94444V1.72222C0 1.04721 0.572081 0.5 1.27778 0.5H2.55556C3.26125 0.5 3.83333 1.04721 3.83333 1.72222H19.1667ZM19.1667 2.94444H3.83333C3.83333 3.61946 3.26125 4.16667 2.55556 4.16667V18.8333C3.26125 18.8333 3.83333 19.3805 3.83333 20.0556H19.1667C19.1667 19.3805 19.7387 18.8333 20.4444 18.8333V4.16667C19.7387 4.16667 19.1667 3.61946 19.1667 2.94444ZM8.94444 6.61111V10.8889C8.94444 11.2264 8.6584 11.5 8.30556 11.5C7.95271 11.5 7.66667 11.2264 7.66667 10.8889V6.61111H5.75C5.39715 6.61111 5.11111 6.33751 5.11111 6C5.11111 5.66249 5.39715 5.38889 5.75 5.38889H10.8611C11.214 5.38889 11.5 5.66249 11.5 6C11.5 6.33751 11.214 6.61111 10.8611 6.61111H8.94444ZM1.27778 1.72222V2.94444H2.55556V1.72222H1.27778ZM20.4444 1.72222V2.94444H21.7222V1.72222H20.4444ZM20.4444 20.0556V21.2778H21.7222V20.0556H20.4444ZM1.27778 20.0556V21.2778H2.55556V20.0556H1.27778ZM13.4167 6.61111C13.0638 6.61111 12.7778 6.33751 12.7778 6C12.7778 5.66249 13.0638 5.38889 13.4167 5.38889H17.25C17.6028 5.38889 17.8889 5.66249 17.8889 6C17.8889 6.33751 17.6028 6.61111 17.25 6.61111H13.4167ZM13.4167 10.2778C13.0638 10.2778 12.7778 10.0042 12.7778 9.66667C12.7778 9.32916 13.0638 9.05556 13.4167 9.05556H17.25C17.6028 9.05556 17.8889 9.32916 17.8889 9.66667C17.8889 10.0042 17.6028 10.2778 17.25 10.2778H13.4167ZM5.75 13.9444C5.39715 13.9444 5.11111 13.6708 5.11111 13.3333C5.11111 12.9958 5.39715 12.7222 5.75 12.7222H17.25C17.6028 12.7222 17.8889 12.9958 17.8889 13.3333C17.8889 13.6708 17.6028 13.9444 17.25 13.9444H5.75ZM5.75 17.6111C5.39715 17.6111 5.11111 17.3375 5.11111 17C5.11111 16.6625 5.39715 16.3889 5.75 16.3889H17.25C17.6028 16.3889 17.8889 16.6625 17.8889 17C17.8889 17.3375 17.6028 17.6111 17.25 17.6111H5.75Z" fill="#185ADC"/>
</svg>
