<svg width="29" height="23" viewBox="0 0 29 23" fill="none" xmlns="http://www.w3.org/2000/svg">
<path d="M1.75 11.4998C1.75 6.69147 1.75 4.28732 3.24375 2.79356C4.73752 1.2998 7.14167 1.2998 11.95 1.2998H17.05C21.8583 1.2998 24.2625 1.2998 25.7562 2.79356C27.25 4.28732 27.25 6.69147 27.25 11.4998C27.25 16.3081 27.25 18.7124 25.7562 20.206C24.2625 21.6998 21.8583 21.6998 17.05 21.6998H11.95C7.14167 21.6998 4.73752 21.6998 3.24375 20.206C1.75 18.7124 1.75 16.3081 1.75 11.4998Z" stroke="#185ADC" stroke-width="2"/>
<path d="M9.57013 16.1663C9.57013 16.7186 10.0014 17.1663 10.5335 17.1663C11.0655 17.1663 11.4968 16.7186 11.4968 16.1663H9.57013ZM13.4235 9.39968C13.4235 9.95195 13.8548 10.3997 14.3868 10.3997C14.9188 10.3997 15.3501 9.95195 15.3501 9.39968H13.4235ZM5.7168 9.39968C5.7168 9.95195 6.14811 10.3997 6.68014 10.3997C7.21217 10.3997 7.64347 9.95195 7.64347 9.39968H5.7168ZM7.96458 15.1663C7.43255 15.1663 7.00125 15.6141 7.00125 16.1663C7.00125 16.7186 7.43255 17.1663 7.96458 17.1663V15.1663ZM13.1023 17.1663C13.6344 17.1663 14.0657 16.7186 14.0657 16.1663C14.0657 15.6141 13.6344 15.1663 13.1023 15.1663V17.1663ZM9.15269 7.83301H10.5335V5.83302H9.15269V7.83301ZM10.5335 7.83301H11.9142V5.83302H10.5335V7.83301ZM11.4968 16.1663V6.83302H9.57013V16.1663H11.4968ZM11.9142 7.83301C12.498 7.83301 12.8464 7.83484 13.0979 7.8674C13.3257 7.89691 13.3375 7.93741 13.3157 7.91717L14.5954 6.42216C14.2085 6.06527 13.7586 5.93744 13.3364 5.88279C12.9378 5.83119 12.4479 5.83302 11.9142 5.83302V7.83301ZM15.3501 9.39968C15.3501 8.84568 15.3519 8.33709 15.3022 7.92344C15.2495 7.48521 15.1264 7.01805 14.7825 6.61643L13.3424 7.94493C13.3229 7.92216 13.3619 7.93445 13.3903 8.17099C13.4217 8.43209 13.4235 8.79364 13.4235 9.39968H15.3501ZM13.3157 7.91717C13.3251 7.92587 13.3341 7.93513 13.3424 7.94493L14.7825 6.61643C14.724 6.54791 14.6614 6.48304 14.5954 6.42216L13.3157 7.91717ZM9.15269 5.83302C8.61895 5.83302 8.12906 5.83119 7.73058 5.88279C7.30841 5.93744 6.85839 6.06527 6.47149 6.42216L7.75128 7.91717C7.72935 7.93741 7.74119 7.89691 7.96905 7.8674C8.22058 7.83484 8.56887 7.83301 9.15269 7.83301V5.83302ZM7.64347 9.39968C7.64347 8.79364 7.64523 8.43209 7.67659 8.17099C7.70502 7.93445 7.74404 7.92216 7.72454 7.94493L6.28435 6.61643C5.94054 7.01805 5.8174 7.48521 5.76475 7.92344C5.71505 8.33709 5.7168 8.84568 5.7168 9.39968H7.64347ZM6.47149 6.42216C6.40548 6.48304 6.343 6.54791 6.28435 6.61643L7.72454 7.94493C7.73293 7.93515 7.74186 7.92588 7.75128 7.91717L6.47149 6.42216ZM7.96458 17.1663H13.1023V15.1663H7.96458V17.1663Z" fill="#185ADC"/>
</svg>
