<svg width="22" height="25" viewBox="0 0 22 25" fill="none" xmlns="http://www.w3.org/2000/svg">
<path opacity="0.5" fill-rule="evenodd" clip-rule="evenodd" d="M1.23945 0C1.92398 0 2.4789 0.575977 2.4789 1.28648V4.23515C3.62096 3.17476 4.96811 2.36366 6.44116 1.86245C8.70827 1.09105 11.1536 1.09483 13.4185 1.8723C15.6834 2.64975 17.6489 4.1601 19.0259 6.18237C20.4027 8.20447 21.1189 10.6315 21.069 13.1072C21.0189 15.5829 20.2053 17.9769 18.7481 19.9373C17.2908 21.8978 15.267 23.3215 12.9726 23.9999C10.6782 24.6782 8.23422 24.5753 6.00034 23.7061C3.76646 22.837 1.85995 21.2472 0.560659 19.1705C0.187842 18.5747 0.351012 17.7779 0.925108 17.3909C1.4992 17.004 2.26683 17.1733 2.63965 17.7692C3.65023 19.3845 5.13308 20.6209 6.87047 21.2968C8.60784 21.9729 10.5089 22.053 12.2935 21.5254C14.0779 20.9978 15.652 19.8905 16.7854 18.3656C17.9189 16.8407 18.5517 14.9787 18.5906 13.0533C18.6294 11.1278 18.0724 9.24018 17.0016 7.66735C15.9307 6.0947 14.402 4.91991 12.6402 4.31514C10.8783 3.71036 8.97642 3.7075 7.21335 4.30739C5.94142 4.74017 4.7902 5.46999 3.84392 6.43241H7.43669C8.12122 6.43241 8.67614 7.00839 8.67614 7.71889C8.67614 8.42939 8.12122 9.00537 7.43669 9.00537H1.23945C0.55492 9.00537 0 8.42939 0 7.71889V1.28648C0 0.575977 0.55492 0 1.23945 0Z" fill="black"/>
</svg>
