<svg width="290" height="290" viewBox="0 0 290 290" fill="none" xmlns="http://www.w3.org/2000/svg">
<path d="M74.6196 203.59L88.264 217.241C90.9975 219.976 95.4306 219.976 98.1648 217.242L138.632 176.775C139.804 175.603 141.703 175.603 142.875 176.775L150.407 184.307C151.579 185.479 151.579 187.379 150.407 188.55L95.3355 243.622C94.1639 244.793 92.2644 244.793 91.0928 243.622L62.8369 215.366C61.6651 214.194 61.6654 212.294 62.8377 211.123L70.3771 203.588C71.549 202.417 73.4484 202.418 74.6196 203.59Z" stroke="white" stroke-width="4"/>
<path d="M229.857 62.1429V62.1406C229.844 50.6272 225.265 39.5891 217.124 31.4478C210.223 24.5474 201.241 20.2058 191.653 19.0349C189.767 18.8045 188.429 17.3234 188.429 15.7199V5.00558C188.429 3.30044 189.784 2.07894 191.266 2.20008C205.439 3.35839 218.807 9.50656 228.936 19.6357C240.211 30.9113 246.554 46.1991 246.571 62.1451V119.286C246.571 123.152 249.705 126.286 253.571 126.286H269.284C274.246 126.291 279.003 128.264 282.512 131.773C286.021 135.282 287.995 140.04 288 145.002V269.284C287.995 274.246 286.021 279.003 282.512 282.512C279.003 286.021 274.246 287.995 269.284 288H232.857C231.2 288 229.857 286.657 229.857 285V274.286C229.857 272.629 231.2 271.286 232.857 271.286H264.286C268.152 271.286 271.286 268.152 271.286 264.286V150C271.286 146.134 268.152 143 264.286 143H232.857C231.2 143 229.857 141.657 229.857 140V62.1429Z" stroke="white" stroke-width="4"/>
<path d="M170.714 126.286H186.429C191.392 126.286 196.152 128.257 199.662 131.767C203.171 135.277 205.143 140.037 205.143 145V269.286C205.143 274.249 203.171 279.009 199.662 282.519C196.152 286.028 191.392 288 186.429 288H20.7143C15.7509 288 10.9909 286.028 7.48129 282.519C3.97168 279.009 2 274.249 2 269.286V145C2 140.037 3.97168 135.277 7.48129 131.767C10.9909 128.257 15.7509 126.286 20.7143 126.286H36.4286C40.2946 126.286 43.4286 123.152 43.4286 119.286V62.1429C43.4286 46.192 49.765 30.8944 61.044 19.6154C72.323 8.33646 87.6205 2 103.571 2C119.522 2 134.82 8.33646 146.099 19.6154C157.378 30.8944 163.714 46.192 163.714 62.1429V119.286C163.714 123.152 166.848 126.286 170.714 126.286ZM72.8628 31.4342C64.7184 39.5787 60.1429 50.6249 60.1429 62.1429V119.286C60.1429 123.152 63.2769 126.286 67.1429 126.286H140C143.866 126.286 147 123.152 147 119.286V62.1429C147 50.6249 142.424 39.5787 134.28 31.4342C126.136 23.2898 115.089 18.7143 103.571 18.7143C92.0535 18.7143 81.0072 23.2898 72.8628 31.4342ZM25.7143 271.286H181.429C185.295 271.286 188.429 268.152 188.429 264.286V150C188.429 146.134 185.295 143 181.429 143H25.7143C21.8483 143 18.7143 146.134 18.7143 150V264.286C18.7143 268.152 21.8483 271.286 25.7143 271.286Z" stroke="white" stroke-width="4"/>
</svg>
